<svg xmlns="http://www.w3.org/2000/svg" version="1.1" xmlns:xlink="http://www.w3.org/1999/xlink" xmlns:svgjs="http://svgjs.com/svgjs" width="180" height="180"><svg xmlns="http://www.w3.org/2000/svg" xmlns:xlink="http://www.w3.org/1999/xlink" width="180" zoomAndPan="magnify" viewBox="0 0 135 135.000003" height="180" preserveAspectRatio="xMidYMid meet" version="1.0"><defs><clipPath id="SvgjsClipPath1001"><path d="M 58.039062 38 L 132.511719 38 L 132.511719 120.613281 L 58.039062 120.613281 Z M 58.039062 38 " clip-rule="nonzero"></path></clipPath><clipPath id="SvgjsClipPath1000"><path d="M 2.230469 7.9375 L 102.285156 7.9375 L 102.285156 126.308594 L 2.230469 126.308594 Z M 2.230469 7.9375 " clip-rule="nonzero"></path></clipPath></defs><path fill="#343eab" d="M 75.460938 55.917969 C 75.460938 58.261719 73.570312 60.160156 71.234375 60.160156 C 68.898438 60.160156 67.003906 58.261719 67.003906 55.917969 C 67.003906 53.570312 68.898438 51.671875 71.234375 51.671875 C 73.570312 51.671875 75.460938 53.570312 75.460938 55.917969 " fill-opacity="1" fill-rule="nonzero"></path><path fill="#343eab" d="M 36.046875 55.917969 C 36.046875 58.261719 34.152344 60.160156 31.820312 60.160156 C 29.484375 60.160156 27.589844 58.261719 27.589844 55.917969 C 27.589844 53.570312 29.484375 51.671875 31.820312 51.671875 C 34.152344 51.671875 36.046875 53.570312 36.046875 55.917969 " fill-opacity="1" fill-rule="nonzero"></path><path fill="#9c489d" d="M 52.921875 66.074219 C 52.238281 66.21875 51.53125 66.292969 50.804688 66.292969 C 49.339844 66.292969 47.949219 65.984375 46.6875 65.433594 C 43.128906 75.453125 43.445312 86.761719 48.203125 96.867188 C 49.523438 97.007812 50.863281 97.078125 52.222656 97.078125 C 53.1875 97.078125 54.144531 97.042969 55.09375 96.972656 C 49.453125 87.25 48.976562 75.84375 52.921875 66.074219 " fill-opacity="1" fill-rule="nonzero"></path><g clip-path="url(#7854620ad6)"><path fill="#9c489d" d="M 120.179688 101.15625 C 128.265625 88.144531 128.765625 71.097656 120.046875 57.265625 C 107.925781 38.027344 82.5625 32.296875 63.398438 44.472656 C 61.476562 45.691406 59.6875 47.046875 58.042969 48.515625 C 59.539062 49.992188 60.589844 51.917969 60.976562 54.078125 C 62.671875 52.425781 64.5625 50.925781 66.636719 49.605469 C 82.972656 39.230469 104.597656 44.113281 114.933594 60.515625 C 125.269531 76.917969 120.402344 98.628906 104.066406 109.003906 C 92.722656 116.207031 78.839844 116.054688 67.945312 109.800781 C 65.292969 110.617188 62.582031 111.21875 59.832031 111.609375 C 73.125 122.195312 92.152344 123.765625 107.304688 114.140625 C 108.695312 113.253906 110.019531 112.296875 111.269531 111.277344 L 132.511719 115.625 L 120.179688 101.15625 " fill-opacity="1" fill-rule="nonzero"></path></g><path fill="#343eab" d="M 57.324219 55.917969 C 57.324219 59.53125 54.40625 62.460938 50.804688 62.460938 C 47.207031 62.460938 44.289062 59.53125 44.289062 55.917969 C 44.289062 52.300781 47.207031 49.371094 50.804688 49.371094 C 54.40625 49.371094 57.324219 52.300781 57.324219 55.917969 " fill-opacity="1" fill-rule="nonzero"></path><g clip-path="url(#54495aa04d)"><path fill="#343eab" d="M 93.90625 49.1875 C 94.515625 52.070312 94.839844 55.058594 94.839844 58.125 C 94.839844 81.753906 75.757812 100.910156 52.222656 100.910156 C 28.683594 100.910156 9.601562 81.753906 9.601562 58.125 C 9.601562 34.492188 28.683594 15.335938 52.222656 15.335938 C 66.976562 15.335938 79.980469 22.867188 87.632812 34.308594 C 90.800781 34.472656 93.945312 34.972656 97.003906 35.796875 C 88.816406 19.285156 71.839844 7.9375 52.222656 7.9375 C 24.613281 7.9375 2.230469 30.40625 2.230469 58.125 C 2.230469 78.050781 13.796875 95.261719 30.554688 103.367188 L 27.246094 126.316406 L 46.285156 107.957031 C 48.234375 108.191406 50.214844 108.3125 52.222656 108.3125 C 79.832031 108.3125 102.210938 85.84375 102.210938 58.125 C 102.210938 56.316406 102.113281 54.527344 101.929688 52.769531 C 99.445312 51.203125 96.75 49.996094 93.90625 49.1875 " fill-opacity="1" fill-rule="nonzero"></path></g></svg><style>@media (prefers-color-scheme: light) { :root { filter: none; } }
</style></svg>