<svg xmlns="http://www.w3.org/2000/svg" xmlns:xlink="http://www.w3.org/1999/xlink" width="180" zoomAndPan="magnify" viewBox="0 0 135 135.000003" height="180" preserveAspectRatio="xMidYMid meet" version="1.0"><defs><g/><clipPath id="934dc3c111"><path d="M 101.507812 45.675781 L 124.640625 45.675781 L 124.640625 71.3125 L 101.507812 71.3125 Z M 101.507812 45.675781 " clip-rule="nonzero"/></clipPath><clipPath id="10bdf787ef"><path d="M 84.171875 36.359375 L 115.25 36.359375 L 115.25 73.078125 L 84.171875 73.078125 Z M 84.171875 36.359375 " clip-rule="nonzero"/></clipPath></defs><g fill="#343eab" fill-opacity="1"><g transform="translate(3.118597, 91.345527)"><g><path d="M 0.8125 -12.609375 L 0.8125 -14.453125 L 10.890625 -14.453125 L 10.890625 -12.609375 L 7.046875 -12.609375 L 7.046875 0 L 4.671875 0 L 4.671875 -12.609375 Z M 0.8125 -12.609375 "/></g></g></g><g fill="#343eab" fill-opacity="1"><g transform="translate(14.844639, 91.345527)"><g><path d="M 9.5625 -11.453125 L 11.9375 -11.453125 L 11.9375 0 L 9.5625 0 L 9.5625 -1.8125 C 8.8125 -0.488281 7.59375 0.171875 5.90625 0.171875 C 4.613281 0.171875 3.546875 -0.253906 2.703125 -1.109375 C 1.867188 -1.960938 1.453125 -3.160156 1.453125 -4.703125 L 1.453125 -11.453125 L 3.8125 -11.453125 L 3.8125 -5.046875 C 3.8125 -4.023438 4.066406 -3.238281 4.578125 -2.6875 C 5.085938 -2.144531 5.785156 -1.875 6.671875 -1.875 C 7.554688 -1.875 8.257812 -2.144531 8.78125 -2.6875 C 9.300781 -3.238281 9.5625 -4.023438 9.5625 -5.046875 Z M 9.5625 -11.453125 "/></g></g></g><g fill="#343eab" fill-opacity="1"><g transform="translate(28.337901, 91.345527)"><g><path d="M 1.046875 -8.171875 C 1.046875 -9.140625 1.453125 -9.957031 2.265625 -10.625 C 3.085938 -11.300781 4.160156 -11.640625 5.484375 -11.640625 C 6.816406 -11.640625 7.875 -11.3125 8.65625 -10.65625 C 9.445312 -10 9.867188 -9.101562 9.921875 -7.96875 L 7.484375 -7.96875 C 7.441406 -8.53125 7.242188 -8.972656 6.890625 -9.296875 C 6.535156 -9.617188 6.039062 -9.78125 5.40625 -9.78125 C 4.769531 -9.78125 4.269531 -9.632812 3.90625 -9.34375 C 3.550781 -9.0625 3.375 -8.6875 3.375 -8.21875 C 3.375 -7.757812 3.597656 -7.394531 4.046875 -7.125 C 4.503906 -6.863281 5.0625 -6.671875 5.71875 -6.546875 C 6.382812 -6.421875 7.046875 -6.269531 7.703125 -6.09375 C 8.359375 -5.914062 8.914062 -5.585938 9.375 -5.109375 C 9.832031 -4.628906 10.0625 -3.988281 10.0625 -3.1875 C 10.0625 -2.1875 9.640625 -1.375 8.796875 -0.75 C 7.960938 -0.125 6.882812 0.1875 5.5625 0.1875 C 4.25 0.1875 3.179688 -0.128906 2.359375 -0.765625 C 1.546875 -1.398438 1.097656 -2.3125 1.015625 -3.5 L 3.46875 -3.5 C 3.507812 -2.925781 3.71875 -2.476562 4.09375 -2.15625 C 4.46875 -1.84375 4.976562 -1.6875 5.625 -1.6875 C 6.269531 -1.6875 6.78125 -1.828125 7.15625 -2.109375 C 7.539062 -2.390625 7.734375 -2.765625 7.734375 -3.234375 C 7.734375 -3.710938 7.503906 -4.082031 7.046875 -4.34375 C 6.585938 -4.601562 6.03125 -4.800781 5.375 -4.9375 C 4.71875 -5.070312 4.054688 -5.222656 3.390625 -5.390625 C 2.734375 -5.566406 2.175781 -5.882812 1.71875 -6.34375 C 1.269531 -6.800781 1.046875 -7.410156 1.046875 -8.171875 Z M 1.046875 -8.171875 "/></g></g></g><g fill="#343eab" fill-opacity="1"><g transform="translate(39.440214, 91.345527)"><g><path d="M 3.9375 0 L 1.5625 0 L 1.5625 -15.390625 L 3.9375 -15.390625 L 3.9375 -6.453125 L 8.09375 -11.453125 L 11.375 -11.453125 L 6.09375 -5.71875 L 11.375 0 L 8.171875 0 L 3.9375 -4.921875 Z M 3.9375 0 "/></g></g></g><g fill="#343eab" fill-opacity="1"><g transform="translate(50.958349, 91.345527)"><g><path d="M 6.390625 0.1875 C 4.722656 0.1875 3.367188 -0.351562 2.328125 -1.4375 C 1.285156 -2.519531 0.765625 -3.953125 0.765625 -5.734375 C 0.765625 -7.523438 1.289062 -8.957031 2.34375 -10.03125 C 3.40625 -11.101562 4.769531 -11.640625 6.4375 -11.640625 C 8.101562 -11.640625 9.457031 -11.125 10.5 -10.09375 C 11.539062 -9.0625 12.0625 -7.710938 12.0625 -6.046875 C 12.0625 -5.648438 12.035156 -5.273438 11.984375 -4.921875 L 3.203125 -4.921875 C 3.253906 -3.972656 3.570312 -3.21875 4.15625 -2.65625 C 4.75 -2.09375 5.492188 -1.8125 6.390625 -1.8125 C 7.671875 -1.8125 8.578125 -2.34375 9.109375 -3.40625 L 11.671875 -3.40625 C 11.316406 -2.351562 10.679688 -1.488281 9.765625 -0.8125 C 8.859375 -0.144531 7.734375 0.1875 6.390625 0.1875 Z M 9.59375 -6.546875 C 9.570312 -7.492188 9.253906 -8.25 8.640625 -8.8125 C 8.035156 -9.375 7.296875 -9.65625 6.421875 -9.65625 C 5.546875 -9.65625 4.8125 -9.375 4.21875 -8.8125 C 3.632812 -8.25 3.300781 -7.492188 3.21875 -6.546875 Z M 9.59375 -6.546875 "/></g></g></g><g fill="#343eab" fill-opacity="1"><g transform="translate(63.786307, 91.345527)"><g><path d="M 6.390625 0.1875 C 4.722656 0.1875 3.367188 -0.351562 2.328125 -1.4375 C 1.285156 -2.519531 0.765625 -3.953125 0.765625 -5.734375 C 0.765625 -7.523438 1.289062 -8.957031 2.34375 -10.03125 C 3.40625 -11.101562 4.769531 -11.640625 6.4375 -11.640625 C 8.101562 -11.640625 9.457031 -11.125 10.5 -10.09375 C 11.539062 -9.0625 12.0625 -7.710938 12.0625 -6.046875 C 12.0625 -5.648438 12.035156 -5.273438 11.984375 -4.921875 L 3.203125 -4.921875 C 3.253906 -3.972656 3.570312 -3.21875 4.15625 -2.65625 C 4.75 -2.09375 5.492188 -1.8125 6.390625 -1.8125 C 7.671875 -1.8125 8.578125 -2.34375 9.109375 -3.40625 L 11.671875 -3.40625 C 11.316406 -2.351562 10.679688 -1.488281 9.765625 -0.8125 C 8.859375 -0.144531 7.734375 0.1875 6.390625 0.1875 Z M 9.59375 -6.546875 C 9.570312 -7.492188 9.253906 -8.25 8.640625 -8.8125 C 8.035156 -9.375 7.296875 -9.65625 6.421875 -9.65625 C 5.546875 -9.65625 4.8125 -9.375 4.21875 -8.8125 C 3.632812 -8.25 3.300781 -7.492188 3.21875 -6.546875 Z M 9.59375 -6.546875 "/></g></g></g><g fill="#343eab" fill-opacity="1"><g transform="translate(76.614265, 91.345527)"><g><path d="M 6.390625 0.1875 C 4.722656 0.1875 3.367188 -0.351562 2.328125 -1.4375 C 1.285156 -2.519531 0.765625 -3.953125 0.765625 -5.734375 C 0.765625 -7.515625 1.285156 -8.941406 2.328125 -10.015625 C 3.378906 -11.097656 4.734375 -11.640625 6.390625 -11.640625 C 7.773438 -11.640625 8.921875 -11.3125 9.828125 -10.65625 C 10.734375 -10 11.347656 -9.0625 11.671875 -7.84375 L 9.109375 -7.84375 C 8.679688 -9.050781 7.773438 -9.65625 6.390625 -9.65625 C 5.410156 -9.65625 4.632812 -9.3125 4.0625 -8.625 C 3.488281 -7.9375 3.203125 -6.972656 3.203125 -5.734375 C 3.203125 -4.503906 3.488281 -3.539062 4.0625 -2.84375 C 4.632812 -2.15625 5.410156 -1.8125 6.390625 -1.8125 C 7.753906 -1.8125 8.660156 -2.414062 9.109375 -3.625 L 11.671875 -3.625 C 11.335938 -2.457031 10.710938 -1.53125 9.796875 -0.84375 C 8.878906 -0.15625 7.742188 0.1875 6.390625 0.1875 Z M 6.390625 0.1875 "/></g></g></g><g fill="#343eab" fill-opacity="1"><g transform="translate(89.088775, 91.345527)"><g><path d="M 3.9375 -15.390625 L 3.9375 -9.65625 C 4.695312 -10.976562 5.914062 -11.640625 7.59375 -11.640625 C 8.882812 -11.640625 9.945312 -11.207031 10.78125 -10.34375 C 11.625 -9.488281 12.046875 -8.296875 12.046875 -6.765625 L 12.046875 0 L 9.6875 0 L 9.6875 -6.40625 C 9.6875 -7.425781 9.429688 -8.210938 8.921875 -8.765625 C 8.410156 -9.316406 7.707031 -9.59375 6.8125 -9.59375 C 5.925781 -9.59375 5.222656 -9.316406 4.703125 -8.765625 C 4.191406 -8.210938 3.9375 -7.425781 3.9375 -6.40625 L 3.9375 0 L 1.5625 0 L 1.5625 -15.390625 Z M 3.9375 -15.390625 "/></g></g></g><g fill="#343eab" fill-opacity="1"><g transform="translate(102.582037, 91.345527)"><g><path d="M 9.125 -2.921875 C 9.8125 -3.617188 10.15625 -4.554688 10.15625 -5.734375 C 10.15625 -6.910156 9.8125 -7.847656 9.125 -8.546875 C 8.4375 -9.242188 7.617188 -9.59375 6.671875 -9.59375 C 5.734375 -9.59375 4.921875 -9.25 4.234375 -8.5625 C 3.546875 -7.882812 3.203125 -6.957031 3.203125 -5.78125 C 3.203125 -4.601562 3.546875 -3.65625 4.234375 -2.9375 C 4.921875 -2.226562 5.734375 -1.875 6.671875 -1.875 C 7.617188 -1.875 8.4375 -2.222656 9.125 -2.921875 Z M 6.171875 0.1875 C 4.648438 0.1875 3.367188 -0.367188 2.328125 -1.484375 C 1.285156 -2.597656 0.765625 -4.023438 0.765625 -5.765625 C 0.765625 -7.503906 1.28125 -8.914062 2.3125 -10 C 3.351562 -11.09375 4.640625 -11.640625 6.171875 -11.640625 C 7.078125 -11.640625 7.875 -11.4375 8.5625 -11.03125 C 9.25 -10.625 9.78125 -10.085938 10.15625 -9.421875 L 10.15625 -11.453125 L 12.546875 -11.453125 L 12.546875 0 L 10.15625 0 L 10.15625 -2.140625 C 9.757812 -1.429688 9.222656 -0.863281 8.546875 -0.4375 C 7.867188 -0.0195312 7.078125 0.1875 6.171875 0.1875 Z M 6.171875 0.1875 "/></g></g></g><g fill="#343eab" fill-opacity="1"><g transform="translate(116.678238, 91.345527)"><g><path d="M 7.109375 -9.53125 L 4.328125 -9.53125 L 4.328125 -3.1875 C 4.328125 -2.75 4.425781 -2.4375 4.625 -2.25 C 4.820312 -2.0625 5.164062 -1.96875 5.65625 -1.96875 L 7.109375 -1.96875 L 7.109375 0 L 5.234375 0 C 3.035156 0 1.9375 -1.0625 1.9375 -3.1875 L 1.9375 -9.53125 L 0.578125 -9.53125 L 0.578125 -11.453125 L 1.9375 -11.453125 L 1.9375 -14.3125 L 4.328125 -14.3125 L 4.328125 -11.453125 L 7.109375 -11.453125 Z M 7.109375 -9.53125 "/></g></g></g><path fill="#343eab" d="M 106.917969 51.242188 C 106.917969 51.972656 106.332031 52.558594 105.605469 52.558594 C 104.882812 52.558594 104.292969 51.972656 104.292969 51.242188 C 104.292969 50.515625 104.882812 49.925781 105.605469 49.925781 C 106.332031 49.925781 106.917969 50.515625 106.917969 51.242188 " fill-opacity="1" fill-rule="nonzero"/><path fill="#343eab" d="M 94.675781 51.242188 C 94.675781 51.972656 94.089844 52.558594 93.363281 52.558594 C 92.636719 52.558594 92.050781 51.972656 92.050781 51.242188 C 92.050781 50.515625 92.636719 49.925781 93.363281 49.925781 C 94.089844 49.925781 94.675781 50.515625 94.675781 51.242188 " fill-opacity="1" fill-rule="nonzero"/><path fill="#9c489d" d="M 99.917969 54.394531 C 99.707031 54.4375 99.484375 54.460938 99.261719 54.460938 C 98.804688 54.460938 98.375 54.367188 97.980469 54.195312 C 96.875 57.304688 96.976562 60.8125 98.453125 63.945312 C 98.863281 63.988281 99.28125 64.011719 99.699219 64.011719 C 100 64.011719 100.296875 64 100.59375 63.976562 C 98.839844 60.960938 98.691406 57.425781 99.917969 54.394531 " fill-opacity="1" fill-rule="nonzero"/><g clip-path="url(#934dc3c111)"><path fill="#9c489d" d="M 120.808594 65.277344 C 123.320312 61.238281 123.476562 55.953125 120.769531 51.664062 C 117.003906 45.695312 109.125 43.917969 103.171875 47.691406 C 102.574219 48.070312 102.019531 48.492188 101.507812 48.949219 C 101.972656 49.40625 102.300781 50.003906 102.421875 50.671875 C 102.945312 50.160156 103.535156 49.695312 104.179688 49.285156 C 109.253906 46.066406 115.96875 47.582031 119.179688 52.671875 C 122.390625 57.757812 120.878906 64.492188 115.804688 67.710938 C 112.28125 69.945312 107.96875 69.898438 104.585938 67.957031 C 103.761719 68.210938 102.917969 68.398438 102.066406 68.519531 C 106.195312 71.800781 112.105469 72.289062 116.8125 69.304688 C 117.242188 69.027344 117.652344 68.730469 118.042969 68.414062 L 124.640625 69.765625 L 120.808594 65.277344 " fill-opacity="1" fill-rule="nonzero"/></g><path fill="#343eab" d="M 101.285156 51.242188 C 101.285156 52.363281 100.378906 53.273438 99.261719 53.273438 C 98.144531 53.273438 97.234375 52.363281 97.234375 51.242188 C 97.234375 50.121094 98.144531 49.214844 99.261719 49.214844 C 100.378906 49.214844 101.285156 50.121094 101.285156 51.242188 " fill-opacity="1" fill-rule="nonzero"/><g clip-path="url(#10bdf787ef)"><path fill="#343eab" d="M 112.648438 49.15625 C 112.839844 50.050781 112.941406 50.976562 112.941406 51.929688 C 112.941406 59.257812 107.011719 65.199219 99.699219 65.199219 C 92.390625 65.199219 86.460938 59.257812 86.460938 51.929688 C 86.460938 44.597656 92.390625 38.65625 99.699219 38.65625 C 104.285156 38.65625 108.324219 40.992188 110.699219 44.539062 C 111.683594 44.59375 112.660156 44.746094 113.609375 45.003906 C 111.070312 39.882812 105.796875 36.359375 99.699219 36.359375 C 91.125 36.359375 84.171875 43.332031 84.171875 51.929688 C 84.171875 58.109375 87.765625 63.449219 92.972656 65.960938 L 91.941406 73.078125 L 97.855469 67.386719 C 98.460938 67.457031 99.078125 67.496094 99.699219 67.496094 C 108.277344 67.496094 115.230469 60.527344 115.230469 51.929688 C 115.230469 51.367188 115.199219 50.8125 115.140625 50.265625 C 114.371094 49.78125 113.53125 49.40625 112.648438 49.15625 " fill-opacity="1" fill-rule="nonzero"/></g></svg>